<svg xmlns="http://www.w3.org/2000/svg" xmlns:xlink="http://www.w3.org/1999/xlink" width="126" zoomAndPan="magnify" viewBox="0 0 94.5 63.749998" height="85" preserveAspectRatio="xMidYMid meet" version="1.0"><defs><clipPath id="ecbebe44db"><path d="M 0 0.0429688 L 94.003906 0.0429688 L 94.003906 63.457031 L 0 63.457031 Z M 0 0.0429688 " clip-rule="nonzero"/></clipPath><clipPath id="0683772791"><path d="M 49 0.0429688 L 93.257812 0.0429688 L 93.257812 45 L 49 45 Z M 49 0.0429688 " clip-rule="nonzero"/></clipPath><clipPath id="67c546b457"><path d="M 0 0.0429688 L 59 0.0429688 L 59 63.457031 L 0 63.457031 Z M 0 0.0429688 " clip-rule="nonzero"/></clipPath><clipPath id="c0ee5e05d4"><path d="M 15.511719 7.1875 L 22.210938 7.1875 L 22.210938 16.296875 L 15.511719 16.296875 Z M 15.511719 7.1875 " clip-rule="nonzero"/></clipPath><clipPath id="0c7b1c69b7"><path d="M 22.179688 8.0625 C 16.363281 16.265625 15.617188 15.96875 15.542969 15.746094 C 15.542969 15.597656 16.363281 14.851562 16.511719 14.925781 C 16.734375 15 16.808594 16.117188 16.660156 16.265625 C 16.511719 16.34375 15.542969 15.894531 15.542969 15.671875 C 15.542969 15.445312 16.511719 14.851562 16.660156 15 C 16.882812 15.074219 16.734375 16.191406 16.585938 16.265625 C 16.363281 16.34375 15.617188 15.894531 15.542969 15.445312 C 15.390625 14.105469 19.644531 8.136719 20.839844 7.390625 C 21.285156 7.164062 21.660156 7.164062 21.882812 7.316406 C 22.03125 7.390625 22.179688 8.0625 22.179688 8.0625 " clip-rule="nonzero"/></clipPath></defs><g clip-path="url(#ecbebe44db)"><path fill="#ffffff" d="M 0 0.0429688 L 94.003906 0.0429688 L 94.003906 63.457031 L 0 63.457031 Z M 0 0.0429688 " fill-opacity="1" fill-rule="nonzero"/></g><g clip-path="url(#0683772791)"><path fill="#8c52ff" d="M 56.085938 33.097656 L 65.503906 12.285156 L 80.199219 44.988281 L 93.453125 44.988281 L 73.179688 0.0859375 L 58.464844 0.0859375 L 49.542969 19.535156 Z M 56.085938 33.097656 " fill-opacity="1" fill-rule="evenodd"/></g><g clip-path="url(#67c546b457)"><path fill="#8c52ff" d="M 34.09375 0.0859375 L 19.378906 0.0859375 L 0 44.988281 L 13.515625 44.988281 L 27.5 12.285156 L 51.917969 63.378906 L 58.019531 49.910156 Z M 34.09375 0.0859375 " fill-opacity="1" fill-rule="evenodd"/></g><g clip-path="url(#c0ee5e05d4)"><g clip-path="url(#0c7b1c69b7)"><path fill="#8c52ff" d="M 12.558594 4.332031 L 25.164062 4.332031 L 25.164062 19.300781 L 12.558594 19.300781 Z M 12.558594 4.332031 " fill-opacity="1" fill-rule="nonzero"/></g></g></svg>