<svg xmlns="http://www.w3.org/2000/svg" xmlns:xlink="http://www.w3.org/1999/xlink" width="78" zoomAndPan="magnify" viewBox="0 0 58.5 47.25" height="63" preserveAspectRatio="xMidYMid meet" version="1.0"><defs><clipPath id="4ff402d373"><path d="M 0.210938 0 L 57.796875 0 L 57.796875 46.511719 L 0.210938 46.511719 Z M 0.210938 0 " clip-rule="nonzero"/></clipPath><clipPath id="d05f4cd5e6"><path d="M 0.210938 0 L 57.058594 0 L 57.058594 45.773438 L 0.210938 45.773438 Z M 0.210938 0 " clip-rule="nonzero"/></clipPath><clipPath id="2edfd5ca70"><path d="M 5.789062 36.042969 L 8.574219 36.042969 L 8.574219 38 L 5.789062 38 Z M 5.789062 36.042969 " clip-rule="nonzero"/></clipPath><clipPath id="32e540f099"><path d="M 6.253906 36.066406 C 11.570312 39.613281 6.035156 37.324219 5.8125 36.660156 C 5.738281 36.4375 6.253906 36.066406 6.253906 36.066406 " clip-rule="nonzero"/></clipPath></defs><g clip-path="url(#4ff402d373)"><path fill="#ffffff" d="M 0.210938 0 L 57.796875 0 L 57.796875 46.511719 L 0.210938 46.511719 Z M 0.210938 0 " fill-opacity="1" fill-rule="nonzero"/></g><g clip-path="url(#d05f4cd5e6)"><path fill="#2036cd" d="M 28.789062 0 C 24.347656 0 19.878906 1.695312 16.488281 5.082031 C 13.96875 7.605469 12.441406 10.730469 11.792969 13.988281 C 5.21875 15.265625 0.230469 21.007812 0.230469 27.941406 C 0.230469 35.804688 6.644531 42.222656 14.511719 42.222656 L 21.339844 42.222656 C 21.589844 42.226562 21.828125 42.179688 22.0625 42.085938 C 22.292969 41.996094 22.496094 41.859375 22.675781 41.683594 C 22.851562 41.511719 22.988281 41.308594 23.085938 41.078125 C 23.183594 40.847656 23.230469 40.609375 23.230469 40.359375 C 23.230469 40.109375 23.183594 39.871094 23.085938 39.640625 C 22.988281 39.410156 22.851562 39.207031 22.675781 39.03125 C 22.496094 38.855469 22.292969 38.722656 22.0625 38.628906 C 21.828125 38.535156 21.589844 38.492188 21.339844 38.496094 L 14.511719 38.496094 C 8.660156 38.496094 3.953125 33.792969 3.953125 27.941406 C 3.953125 22.414062 8.15625 17.914062 13.539062 17.425781 C 13.972656 17.382812 14.347656 17.207031 14.660156 16.902344 C 14.972656 16.597656 15.15625 16.226562 15.207031 15.792969 C 15.550781 12.84375 16.859375 9.972656 19.128906 7.703125 C 21.800781 5.03125 25.289062 3.726562 28.789062 3.726562 C 32.292969 3.726562 35.757812 5.027344 38.433594 7.703125 C 41.527344 10.796875 42.835938 14.996094 42.351562 19.015625 C 42.320312 19.28125 42.34375 19.539062 42.421875 19.796875 C 42.5 20.050781 42.625 20.277344 42.804688 20.476562 C 42.980469 20.679688 43.1875 20.832031 43.433594 20.945312 C 43.675781 21.054688 43.929688 21.109375 44.195312 21.109375 L 44.933594 21.109375 C 49.78125 21.109375 53.625 24.957031 53.625 29.804688 C 53.625 34.652344 49.78125 38.496094 44.933594 38.496094 L 36.242188 38.496094 C 35.992188 38.492188 35.75 38.535156 35.519531 38.628906 C 35.289062 38.722656 35.085938 38.855469 34.90625 39.03125 C 34.730469 39.207031 34.59375 39.410156 34.496094 39.640625 C 34.398438 39.871094 34.351562 40.109375 34.351562 40.359375 C 34.351562 40.609375 34.398438 40.847656 34.496094 41.078125 C 34.59375 41.308594 34.730469 41.511719 34.90625 41.683594 C 35.085938 41.859375 35.289062 41.996094 35.519531 42.085938 C 35.75 42.179688 35.992188 42.226562 36.242188 42.222656 L 44.933594 42.222656 C 51.78125 42.222656 57.351562 36.652344 57.351562 29.804688 C 57.351562 23.339844 52.375 18.082031 46.058594 17.5 C 46.089844 13.007812 44.492188 8.503906 41.074219 5.082031 C 37.6875 1.699219 33.234375 0 28.789062 0 Z M 28.789062 19.867188 C 28.167969 19.867188 27.839844 20.070312 27.53125 20.355469 L 20.699219 26.5625 C 19.910156 27.292969 19.925781 28.484375 20.582031 29.203125 C 21.242188 29.921875 22.5 29.972656 23.222656 29.316406 L 26.929688 25.941406 L 26.929688 44.082031 C 26.929688 45.113281 27.761719 45.945312 28.789062 45.945312 C 29.820312 45.945312 30.652344 45.113281 30.652344 44.082031 L 30.652344 25.941406 L 34.359375 29.316406 C 35.082031 29.972656 36.300781 29.882812 36.996094 29.203125 C 37.730469 28.484375 37.597656 27.226562 36.882812 26.5625 L 30.050781 20.355469 C 29.683594 20.015625 29.410156 19.867188 28.789062 19.867188 Z M 28.789062 19.867188 " fill-opacity="1" fill-rule="nonzero"/></g><g clip-path="url(#2edfd5ca70)"><g clip-path="url(#32e540f099)"><path fill="#2036cd" d="M 2.859375 33.113281 L 14.617188 33.113281 L 14.617188 42.492188 L 2.859375 42.492188 Z M 2.859375 33.113281 " fill-opacity="1" fill-rule="nonzero"/></g></g></svg>