<svg xmlns="http://www.w3.org/2000/svg" xmlns:xlink="http://www.w3.org/1999/xlink" width="65" zoomAndPan="magnify" viewBox="0 0 48.75 47.25" height="63" preserveAspectRatio="xMidYMid meet" version="1.0"><defs><clipPath id="ae1a5c5d8e"><path d="M 0.257812 0 L 48.246094 0 L 48.246094 46.511719 L 0.257812 46.511719 Z M 0.257812 0 " clip-rule="nonzero"/></clipPath><clipPath id="f35de52d53"><path d="M 0.257812 23 L 13 23 L 13 45.773438 L 0.257812 45.773438 Z M 0.257812 23 " clip-rule="nonzero"/></clipPath><clipPath id="b7a327c489"><path d="M 32 38 L 44 38 L 44 45.773438 L 32 45.773438 Z M 32 38 " clip-rule="nonzero"/></clipPath><clipPath id="703f61f6db"><path d="M 11 41 L 36 41 L 36 45.773438 L 11 45.773438 Z M 11 41 " clip-rule="nonzero"/></clipPath><clipPath id="76af634dd9"><path d="M 27 2 L 47.507812 2 L 47.507812 18 L 27 18 Z M 27 2 " clip-rule="nonzero"/></clipPath><clipPath id="47d2198153"><path d="M 11.386719 39.121094 L 12.191406 39.121094 L 12.191406 40.417969 L 11.386719 40.417969 Z M 11.386719 39.121094 " clip-rule="nonzero"/></clipPath><clipPath id="cc3763308a"><path d="M 11.40625 40.351562 C 11.554688 37.765625 12.363281 40.054688 12.144531 40.351562 C 11.996094 40.496094 11.40625 40.351562 11.40625 40.351562 " clip-rule="nonzero"/></clipPath></defs><g clip-path="url(#ae1a5c5d8e)"><path fill="#ffffff" d="M 0.257812 0 L 48.246094 0 L 48.246094 46.511719 L 0.257812 46.511719 Z M 0.257812 0 " fill-opacity="1" fill-rule="nonzero"/></g><g clip-path="url(#f35de52d53)"><path fill="#2036cd" d="M 9.066406 45.921875 L 0.257812 45.921875 L 0.257812 44.324219 L 9.066406 44.324219 C 9.949219 44.324219 10.667969 43.605469 10.667969 42.722656 L 10.667969 26.707031 C 10.667969 25.824219 9.949219 25.105469 9.066406 25.105469 L 0.257812 25.105469 L 0.257812 23.503906 L 9.066406 23.503906 C 10.832031 23.503906 12.269531 24.941406 12.269531 26.707031 L 12.269531 42.722656 C 12.269531 44.488281 10.832031 45.921875 9.066406 45.921875 Z M 9.066406 45.921875 " fill-opacity="1" fill-rule="nonzero"/></g><path fill="#2036cd" d="M 19.472656 35.515625 L 17.070312 35.515625 L 17.070312 33.914062 L 19.472656 33.914062 C 23.890625 33.914062 27.480469 30.320312 27.480469 25.90625 L 27.480469 16.300781 C 27.480469 14.105469 25.695312 12.308594 23.503906 12.296875 L 23.496094 12.296875 C 23.273438 12.296875 23.066406 12.378906 22.910156 12.535156 C 22.757812 12.683594 22.675781 12.886719 22.675781 13.09375 L 22.675781 18.699219 C 22.675781 24 18.367188 28.308594 13.066406 28.308594 L 11.46875 28.308594 L 11.46875 26.707031 L 13.066406 26.707031 C 17.484375 26.707031 21.074219 23.113281 21.074219 18.699219 L 21.074219 13.09375 C 21.074219 12.453125 21.324219 11.851562 21.78125 11.398438 C 22.238281 10.945312 22.847656 10.691406 23.496094 10.691406 L 23.511719 10.691406 C 26.582031 10.714844 29.082031 13.226562 29.082031 16.296875 L 29.082031 25.90625 C 29.082031 31.203125 24.773438 35.515625 19.472656 35.515625 Z M 19.472656 35.515625 " fill-opacity="1" fill-rule="nonzero"/><path fill="#2036cd" d="M 40.691406 29.910156 L 35.085938 29.910156 C 33.101562 29.910156 31.484375 28.292969 31.484375 26.304688 C 31.484375 24.320312 33.101562 22.703125 35.085938 22.703125 L 40.691406 22.703125 C 42.679688 22.703125 44.296875 24.320312 44.296875 26.304688 C 44.296875 28.292969 42.679688 29.910156 40.691406 29.910156 Z M 35.085938 24.304688 C 33.984375 24.304688 33.085938 25.203125 33.085938 26.304688 C 33.085938 27.410156 33.984375 28.308594 35.085938 28.308594 L 40.691406 28.308594 C 41.796875 28.308594 42.695312 27.410156 42.695312 26.304688 C 42.695312 25.203125 41.796875 24.304688 40.691406 24.304688 Z M 35.085938 24.304688 " fill-opacity="1" fill-rule="nonzero"/><path fill="#2036cd" d="M 41.492188 35.515625 L 35.085938 35.515625 C 33.101562 35.515625 31.484375 33.898438 31.484375 31.910156 C 31.484375 29.925781 33.101562 28.308594 35.085938 28.308594 L 41.492188 28.308594 C 43.480469 28.308594 45.097656 29.925781 45.097656 31.910156 C 45.097656 33.898438 43.480469 35.515625 41.492188 35.515625 Z M 35.085938 29.910156 C 33.984375 29.910156 33.085938 30.808594 33.085938 31.910156 C 33.085938 33.015625 33.984375 33.914062 35.085938 33.914062 L 41.492188 33.914062 C 42.597656 33.914062 43.496094 33.015625 43.496094 31.910156 C 43.496094 30.808594 42.597656 29.910156 41.492188 29.910156 Z M 35.085938 29.910156 " fill-opacity="1" fill-rule="nonzero"/><path fill="#2036cd" d="M 41.09375 40.320312 L 35.488281 40.320312 C 33.722656 40.320312 32.285156 38.882812 32.285156 37.117188 C 32.285156 35.351562 33.722656 33.914062 35.488281 33.914062 L 41.09375 33.914062 C 42.859375 33.914062 44.296875 35.351562 44.296875 37.117188 C 44.296875 38.882812 42.859375 40.320312 41.09375 40.320312 Z M 35.488281 35.515625 C 34.605469 35.515625 33.886719 36.234375 33.886719 37.117188 C 33.886719 38 34.605469 38.71875 35.488281 38.71875 L 41.09375 38.71875 C 41.976562 38.71875 42.695312 38 42.695312 37.117188 C 42.695312 36.234375 41.976562 35.515625 41.09375 35.515625 Z M 35.488281 35.515625 " fill-opacity="1" fill-rule="nonzero"/><g clip-path="url(#b7a327c489)"><path fill="#2036cd" d="M 40.292969 45.121094 L 35.488281 45.121094 C 33.722656 45.121094 32.285156 43.6875 32.285156 41.921875 C 32.285156 40.152344 33.722656 38.71875 35.488281 38.71875 L 40.292969 38.71875 C 42.058594 38.71875 43.496094 40.152344 43.496094 41.921875 C 43.496094 43.6875 42.058594 45.121094 40.292969 45.121094 Z M 35.488281 40.320312 C 34.605469 40.320312 33.886719 41.039062 33.886719 41.921875 C 33.886719 42.800781 34.605469 43.519531 35.488281 43.519531 L 40.292969 43.519531 C 41.175781 43.519531 41.894531 42.800781 41.894531 41.921875 C 41.894531 41.039062 41.175781 40.320312 40.292969 40.320312 Z M 35.488281 40.320312 " fill-opacity="1" fill-rule="nonzero"/></g><g clip-path="url(#703f61f6db)"><path fill="#2036cd" d="M 35.488281 45.121094 L 21.269531 45.121094 C 18.980469 45.121094 16.816406 44.273438 15.148438 42.71875 L 11.46875 42.71875 L 11.46875 41.117188 L 15.804688 41.117188 L 16.039062 41.355469 C 17.4375 42.75 19.292969 43.519531 21.269531 43.519531 L 35.488281 43.519531 Z M 35.488281 45.121094 " fill-opacity="1" fill-rule="nonzero"/></g><g clip-path="url(#76af634dd9)"><path fill="#2036cd" d="M 35.488281 17.429688 L 27.148438 9.09375 L 31.484375 4.757812 L 35.488281 8.761719 L 41.761719 2.488281 L 42.894531 3.621094 L 35.488281 11.023438 L 31.484375 7.023438 L 29.414062 9.09375 L 35.488281 15.164062 L 46.550781 4.101562 L 47.683594 5.234375 Z M 35.488281 17.429688 " fill-opacity="1" fill-rule="nonzero"/></g><path fill="#2036cd" d="M 43.269531 0.980469 L 44.222656 0.0273438 L 45.355469 1.160156 L 44.402344 2.113281 Z M 43.269531 0.980469 " fill-opacity="1" fill-rule="nonzero"/><path fill="#2036cd" d="M 28.28125 22.703125 L 34.6875 22.703125 L 34.6875 24.304688 L 28.28125 24.304688 Z M 28.28125 22.703125 " fill-opacity="1" fill-rule="nonzero"/><g clip-path="url(#47d2198153)"><g clip-path="url(#cc3763308a)"><path fill="#2036cd" d="M 8.453125 34.8125 L 15.097656 34.8125 L 15.097656 43.300781 L 8.453125 43.300781 Z M 8.453125 34.8125 " fill-opacity="1" fill-rule="nonzero"/></g></g></svg>