<svg xmlns="http://www.w3.org/2000/svg" xmlns:xlink="http://www.w3.org/1999/xlink" width="63" zoomAndPan="magnify" viewBox="0 0 47.25 47.250001" height="63" preserveAspectRatio="xMidYMid meet" version="1.0"><defs><clipPath id="2fca62a83f"><path d="M 0 0 L 46.511719 0 L 46.511719 46.511719 L 0 46.511719 Z M 0 0 " clip-rule="nonzero"/></clipPath><clipPath id="cf42a92f9a"><path d="M 0 0 L 45.773438 0 L 45.773438 45.773438 L 0 45.773438 Z M 0 0 " clip-rule="nonzero"/></clipPath><clipPath id="1484da6d30"><path d="M 6.386719 33.328125 L 8.644531 33.328125 L 8.644531 34.339844 L 6.386719 34.339844 Z M 6.386719 33.328125 " clip-rule="nonzero"/></clipPath><clipPath id="4a63b0e755"><path d="M 6.398438 33.558594 C 10.976562 32.746094 7.136719 34.589844 6.546875 34.296875 C 6.398438 34.148438 6.398438 33.558594 6.398438 33.558594 " clip-rule="nonzero"/></clipPath></defs><g clip-path="url(#2fca62a83f)"><path fill="#ffffff" d="M 0 0 L 46.511719 0 L 46.511719 46.511719 L 0 46.511719 Z M 0 0 " fill-opacity="1" fill-rule="nonzero"/></g><g clip-path="url(#cf42a92f9a)"><path fill="#2036cd" d="M 41.691406 0 L 4.253906 0 C 1.910156 0 0 1.910156 0 4.253906 L 0 41.691406 C 0 44.039062 1.910156 45.945312 4.253906 45.945312 L 41.691406 45.945312 C 44.039062 45.945312 45.945312 44.039062 45.945312 41.691406 L 45.945312 4.253906 C 45.945312 1.910156 44.039062 0 41.691406 0 Z M 45.21875 41.691406 C 45.21875 43.636719 43.636719 45.21875 41.691406 45.21875 L 4.253906 45.21875 C 2.3125 45.21875 0.730469 43.636719 0.730469 41.691406 L 0.730469 4.253906 C 0.730469 2.3125 2.3125 0.730469 4.253906 0.730469 L 41.691406 0.730469 C 43.636719 0.730469 45.21875 2.3125 45.21875 4.253906 Z M 45.21875 41.691406 " fill-opacity="1" fill-rule="nonzero"/></g><path fill="#2036cd" d="M 8.671875 24.261719 L 12.363281 24.261719 C 12.511719 24.261719 12.644531 24.167969 12.699219 24.03125 L 15.375 17.339844 L 18.574219 17.339844 L 21.25 24.03125 C 21.304688 24.167969 21.4375 24.261719 21.589844 24.261719 L 25.28125 24.261719 C 25.402344 24.261719 25.515625 24.203125 25.582031 24.101562 C 25.652344 24.003906 25.664062 23.878906 25.621094 23.765625 L 18.703125 5.769531 C 18.648438 5.628906 18.511719 5.535156 18.359375 5.535156 L 15.59375 5.535156 C 15.441406 5.535156 15.308594 5.628906 15.253906 5.769531 L 8.332031 23.765625 C 8.289062 23.878906 8.304688 24.003906 8.371094 24.101562 C 8.4375 24.203125 8.550781 24.261719 8.671875 24.261719 Z M 15.84375 6.265625 L 18.109375 6.265625 L 24.75 23.53125 L 21.835938 23.53125 L 19.160156 16.839844 C 19.101562 16.699219 18.96875 16.609375 18.820312 16.609375 L 15.128906 16.609375 C 14.980469 16.609375 14.847656 16.699219 14.789062 16.839844 L 12.113281 23.53125 L 9.203125 23.53125 Z M 15.84375 6.265625 " fill-opacity="1" fill-rule="nonzero"/><path fill="#2036cd" d="M 15.128906 14.570312 L 18.820312 14.570312 C 18.9375 14.570312 19.050781 14.511719 19.117188 14.417969 C 19.1875 14.320312 19.203125 14.195312 19.164062 14.082031 L 17.316406 9.007812 C 17.265625 8.863281 17.128906 8.765625 16.976562 8.765625 C 16.820312 8.765625 16.683594 8.863281 16.632812 9.007812 L 14.785156 14.082031 C 14.746094 14.195312 14.761719 14.320312 14.832031 14.417969 C 14.898438 14.511719 15.011719 14.570312 15.128906 14.570312 Z M 16.976562 10.199219 L 18.300781 13.84375 L 15.648438 13.84375 Z M 16.976562 10.199219 " fill-opacity="1" fill-rule="nonzero"/><path fill="#2036cd" d="M 42.917969 27.234375 C 39.707031 26.292969 36.398438 25.976562 33.089844 26.300781 C 29.570312 26.644531 26.078125 27.746094 22.972656 29.480469 C 19.871094 27.746094 16.378906 26.644531 12.855469 26.300781 C 9.546875 25.976562 6.238281 26.292969 3.027344 27.234375 C 2.875 27.28125 2.769531 27.425781 2.769531 27.585938 L 2.769531 35.894531 C 2.769531 36.019531 2.832031 36.136719 2.941406 36.203125 C 3.046875 36.269531 3.179688 36.277344 3.292969 36.21875 C 5.351562 35.203125 8.667969 34.058594 12.789062 34.410156 C 16.285156 34.707031 19.03125 35.992188 20.773438 37.074219 C 20.769531 37.140625 20.761719 37.207031 20.761719 37.273438 C 20.761719 38.496094 21.753906 39.488281 22.972656 39.488281 C 24.191406 39.488281 25.183594 38.496094 25.183594 37.273438 C 25.183594 37.207031 25.179688 37.140625 25.171875 37.074219 C 26.914062 35.992188 29.660156 34.707031 33.15625 34.410156 C 37.277344 34.0625 40.597656 35.203125 42.652344 36.21875 C 42.765625 36.277344 42.898438 36.269531 43.007812 36.203125 C 43.113281 36.136719 43.179688 36.019531 43.179688 35.894531 L 43.179688 27.585938 C 43.179688 27.425781 43.070312 27.28125 42.917969 27.234375 Z M 33.160156 27.027344 C 36.289062 26.71875 39.410156 27 42.449219 27.859375 L 42.449219 32.140625 C 39.601562 31.128906 36.539062 30.707031 33.558594 30.914062 C 29.097656 31.226562 25.613281 32.851562 23.335938 34.296875 L 23.335938 32.410156 C 24.117188 31.96875 27.5 30.191406 32.234375 29.792969 C 32.433594 29.777344 32.582031 29.601562 32.566406 29.398438 C 32.550781 29.199219 32.375 29.050781 32.171875 29.066406 C 27.78125 29.433594 24.570312 30.921875 23.335938 31.578125 L 23.335938 30.113281 C 26.351562 28.429688 29.742188 27.359375 33.160156 27.027344 Z M 3.496094 27.859375 C 6.535156 27 9.660156 26.722656 12.785156 27.027344 C 16.203125 27.359375 19.59375 28.425781 22.609375 30.105469 L 22.609375 31.578125 C 21.375 30.921875 18.167969 29.433594 13.773438 29.066406 C 13.570312 29.050781 13.398438 29.199219 13.378906 29.402344 C 13.363281 29.601562 13.511719 29.777344 13.714844 29.792969 C 18.4375 30.1875 21.828125 31.96875 22.609375 32.410156 L 22.609375 34.292969 C 20.332031 32.851562 16.847656 31.226562 12.386719 30.917969 C 11.890625 30.882812 11.390625 30.863281 10.886719 30.863281 C 8.390625 30.863281 5.867188 31.296875 3.496094 32.140625 Z M 3.496094 27.859375 " fill-opacity="1" fill-rule="nonzero"/><path fill="#2036cd" d="M 29.894531 13.84375 C 27.148438 13.84375 24.917969 16.074219 24.917969 18.820312 C 24.917969 21.566406 27.148438 23.800781 29.894531 23.800781 C 31.144531 23.800781 32.3125 23.34375 33.21875 22.519531 L 33.21875 23.4375 C 33.21875 23.636719 33.382812 23.800781 33.585938 23.800781 L 36.351562 23.800781 C 36.554688 23.800781 36.71875 23.636719 36.71875 23.4375 L 36.71875 10.976562 C 36.71875 10.859375 36.664062 10.753906 36.570312 10.683594 C 35.613281 9.96875 33.59375 8.765625 30.816406 8.765625 C 29.621094 8.765625 27.285156 9.015625 25.0625 10.683594 C 24.972656 10.753906 24.917969 10.859375 24.917969 10.976562 L 24.917969 13.742188 C 24.917969 13.890625 25.003906 14.023438 25.140625 14.082031 C 25.277344 14.136719 25.433594 14.105469 25.539062 14.003906 C 25.96875 13.578125 27.558594 12.195312 29.882812 12.261719 C 31.4375 12.3125 32.597656 12.992188 33.21875 13.464844 L 33.21875 15.121094 C 32.3125 14.300781 31.144531 13.84375 29.894531 13.84375 Z M 33.8125 13 C 33.164062 12.476562 31.792969 11.59375 29.90625 11.535156 C 27.964844 11.476562 26.480469 12.316406 25.644531 12.949219 L 25.644531 11.160156 C 27.65625 9.714844 29.738281 9.496094 30.816406 9.496094 C 33.25 9.496094 35.054688 10.492188 35.988281 11.160156 L 35.988281 23.070312 L 33.949219 23.070312 L 33.949219 21.582031 C 33.949219 21.421875 33.847656 21.285156 33.699219 21.234375 C 33.550781 21.183594 33.386719 21.234375 33.292969 21.363281 C 32.476562 22.449219 31.238281 23.070312 29.894531 23.070312 C 27.550781 23.070312 25.644531 21.164062 25.644531 18.820312 C 25.644531 16.476562 27.550781 14.570312 29.894531 14.570312 C 31.242188 14.570312 32.480469 15.195312 33.292969 16.277344 C 33.386719 16.402344 33.550781 16.453125 33.699219 16.40625 C 33.847656 16.355469 33.949219 16.214844 33.949219 16.058594 L 33.949219 13.285156 C 33.949219 13.175781 33.898438 13.070312 33.8125 13 Z M 33.8125 13 " fill-opacity="1" fill-rule="nonzero"/><path fill="#2036cd" d="M 29.894531 16.152344 C 28.421875 16.152344 27.222656 17.347656 27.222656 18.820312 C 27.222656 20.292969 28.421875 21.492188 29.894531 21.492188 C 31.367188 21.492188 32.566406 20.292969 32.566406 18.820312 C 32.566406 17.347656 31.367188 16.152344 29.894531 16.152344 Z M 29.894531 20.761719 C 28.824219 20.761719 27.949219 19.890625 27.949219 18.820312 C 27.949219 17.75 28.824219 16.878906 29.894531 16.878906 C 30.964844 16.878906 31.839844 17.75 31.839844 18.820312 C 31.839844 19.890625 30.964844 20.761719 29.894531 20.761719 Z M 29.894531 20.761719 " fill-opacity="1" fill-rule="nonzero"/><g clip-path="url(#1484da6d30)"><g clip-path="url(#4a63b0e755)"><path fill="#2036cd" d="M 3.445312 29.644531 L 13.929688 29.644531 L 13.929688 37.25 L 3.445312 37.25 Z M 3.445312 29.644531 " fill-opacity="1" fill-rule="nonzero"/></g></g></svg>