<svg xmlns="http://www.w3.org/2000/svg" xmlns:xlink="http://www.w3.org/1999/xlink" width="400" zoomAndPan="magnify" viewBox="0 0 300 68.999997" height="92" preserveAspectRatio="xMidYMid meet" version="1.0"><defs><g/><clipPath id="a3c9f7d92b"><path d="M 0 18.21875 L 7.699219 18.21875 L 7.699219 45.34375 L 0 45.34375 Z M 0 18.21875 " clip-rule="nonzero"/></clipPath><clipPath id="84333e31bb"><path d="M 3.847656 18.21875 C 5.976562 18.21875 7.699219 19.941406 7.699219 22.070312 L 7.699219 41.472656 C 7.699219 43.601562 5.976562 45.324219 3.847656 45.324219 C 1.722656 45.324219 0 43.601562 0 41.472656 L 0 22.070312 C 0 19.941406 1.722656 18.21875 3.847656 18.21875 Z M 3.847656 18.21875 " clip-rule="nonzero"/></clipPath><clipPath id="ad21623f5c"><path d="M 70 4.765625 L 114.886719 4.765625 L 114.886719 50 L 70 50 Z M 70 4.765625 " clip-rule="nonzero"/></clipPath><clipPath id="de9b6ade2f"><path d="M 21.136719 4.765625 L 80 4.765625 L 80 68.515625 L 21.136719 68.515625 Z M 21.136719 4.765625 " clip-rule="nonzero"/></clipPath></defs><rect x="-30" width="360" fill="#ffffff" y="-6.9" height="82.799996" fill-opacity="1"/><g clip-path="url(#a3c9f7d92b)"><g clip-path="url(#84333e31bb)"><path fill="#182527" d="M 0 18.21875 L 7.699219 18.21875 L 7.699219 45.316406 L 0 45.316406 Z M 0 18.21875 " fill-opacity="1" fill-rule="nonzero"/></g></g><g clip-path="url(#ad21623f5c)"><path fill="#7019ff" d="M 77.519531 37.996094 L 86.988281 17.070312 L 101.757812 49.949219 L 115.085938 49.949219 L 94.703125 4.8125 L 79.910156 4.8125 L 70.9375 24.363281 Z M 77.519531 37.996094 " fill-opacity="1" fill-rule="evenodd"/></g><g clip-path="url(#de9b6ade2f)"><path fill="#7019ff" d="M 55.410156 4.8125 L 40.617188 4.8125 L 21.136719 49.949219 L 34.722656 49.949219 L 48.78125 17.070312 L 73.328125 68.4375 L 79.460938 54.898438 Z M 55.410156 4.8125 " fill-opacity="1" fill-rule="evenodd"/></g><g fill="#000000" fill-opacity="1"><g transform="translate(108.877103, 19.803121)"><g><path d="M 16.96875 -15.28125 C 17.582031 -15.28125 18.003906 -15.082031 18.234375 -14.6875 C 18.429688 -14.34375 18.53125 -13.742188 18.53125 -12.890625 L 18.53125 -0.625 C 18.53125 -0.34375 18.460938 -0.164062 18.328125 -0.09375 C 18.191406 -0.0195312 18.078125 0.015625 17.984375 0.015625 L 16.390625 0.015625 C 16.316406 0.015625 16.210938 -0.0195312 16.078125 -0.09375 C 15.941406 -0.164062 15.875 -0.34375 15.875 -0.625 L 15.875 -11.78125 C 15.875 -11.789062 15.875 -11.796875 15.875 -11.796875 C 15.875 -11.804688 15.875 -11.8125 15.875 -11.8125 L 15.78125 -11.8125 C 15.757812 -11.8125 15.75 -11.800781 15.75 -11.78125 L 12.5625 -3.90625 C 12.4375 -3.53125 12.304688 -3.195312 12.171875 -2.90625 C 12.109375 -2.769531 12.035156 -2.644531 11.953125 -2.53125 C 11.867188 -2.425781 11.789062 -2.320312 11.71875 -2.21875 C 11.53125 -2.019531 11.332031 -1.882812 11.125 -1.8125 C 10.925781 -1.738281 10.679688 -1.703125 10.390625 -1.703125 L 9.625 -1.703125 C 9.351562 -1.703125 9.109375 -1.738281 8.890625 -1.8125 C 8.773438 -1.851562 8.671875 -1.910156 8.578125 -1.984375 C 8.484375 -2.054688 8.390625 -2.132812 8.296875 -2.21875 C 8.128906 -2.414062 7.976562 -2.644531 7.84375 -2.90625 C 7.71875 -3.195312 7.585938 -3.53125 7.453125 -3.90625 L 4.28125 -11.765625 C 4.269531 -11.796875 4.253906 -11.8125 4.234375 -11.8125 L 4.140625 -11.8125 C 4.140625 -11.8125 4.140625 -11.804688 4.140625 -11.796875 C 4.140625 -11.796875 4.140625 -11.789062 4.140625 -11.78125 L 4.140625 -0.625 C 4.140625 -0.34375 4.070312 -0.164062 3.9375 -0.09375 C 3.8125 -0.0195312 3.703125 0.015625 3.609375 0.015625 L 2.015625 0.015625 C 1.929688 0.015625 1.820312 -0.0195312 1.6875 -0.09375 C 1.550781 -0.164062 1.484375 -0.34375 1.484375 -0.625 L 1.484375 -12.890625 C 1.484375 -13.742188 1.582031 -14.34375 1.78125 -14.6875 C 2 -15.082031 2.425781 -15.28125 3.0625 -15.28125 L 4.765625 -15.28125 C 5.035156 -15.28125 5.253906 -15.253906 5.421875 -15.203125 C 5.628906 -15.140625 5.800781 -15.050781 5.9375 -14.9375 C 6 -14.851562 6.0625 -14.769531 6.125 -14.6875 C 6.195312 -14.601562 6.257812 -14.503906 6.3125 -14.390625 C 6.351562 -14.273438 6.398438 -14.144531 6.453125 -14 C 6.515625 -13.863281 6.570312 -13.710938 6.625 -13.546875 L 9.890625 -5.34375 C 9.898438 -5.300781 9.910156 -5.273438 9.921875 -5.265625 C 9.929688 -5.265625 9.9375 -5.265625 9.9375 -5.265625 L 10.125 -5.265625 C 10.144531 -5.265625 10.164062 -5.289062 10.1875 -5.34375 L 13.46875 -13.546875 C 13.53125 -13.710938 13.582031 -13.863281 13.625 -14 C 13.675781 -14.144531 13.726562 -14.273438 13.78125 -14.390625 C 13.84375 -14.503906 13.90625 -14.601562 13.96875 -14.6875 C 14.03125 -14.769531 14.09375 -14.851562 14.15625 -14.9375 C 14.300781 -15.070312 14.46875 -15.160156 14.65625 -15.203125 C 14.8125 -15.253906 15.023438 -15.28125 15.296875 -15.28125 Z M 16.96875 -15.28125 "/></g></g></g><g fill="#000000" fill-opacity="1"><g transform="translate(129.814051, 19.803121)"><g><path d="M 11.421875 -13.5625 L 16.640625 -0.703125 C 16.710938 -0.523438 16.726562 -0.378906 16.6875 -0.265625 C 16.675781 -0.210938 16.640625 -0.148438 16.578125 -0.078125 C 16.523438 -0.015625 16.425781 0.015625 16.28125 0.015625 L 14.296875 0.015625 C 14.035156 0.015625 13.859375 -0.117188 13.765625 -0.390625 L 9.15625 -11.875 C 9.144531 -11.894531 9.140625 -11.90625 9.140625 -11.90625 L 9.0625 -11.90625 C 9.0625 -11.90625 9.054688 -11.898438 9.046875 -11.890625 C 9.046875 -11.890625 9.039062 -11.875 9.03125 -11.84375 L 6.65625 -5.84375 L 8.953125 -5.84375 C 9.210938 -5.84375 9.394531 -5.71875 9.5 -5.46875 L 10.15625 -3.828125 C 10.21875 -3.609375 10.195312 -3.425781 10.09375 -3.28125 C 9.988281 -3.101562 9.828125 -3.015625 9.609375 -3.015625 L 5.546875 -3.015625 L 4.484375 -0.375 C 4.390625 -0.113281 4.21875 0.015625 3.96875 0.015625 L 1.921875 0.015625 C 1.773438 0.015625 1.675781 -0.015625 1.625 -0.078125 C 1.570312 -0.148438 1.535156 -0.210938 1.515625 -0.265625 C 1.484375 -0.367188 1.5 -0.515625 1.5625 -0.703125 L 6.734375 -13.5625 C 6.984375 -14.21875 7.253906 -14.664062 7.546875 -14.90625 C 7.585938 -14.9375 7.628906 -14.96875 7.671875 -15 C 7.722656 -15.039062 7.773438 -15.070312 7.828125 -15.09375 C 8.203125 -15.351562 8.628906 -15.484375 9.109375 -15.484375 C 9.609375 -15.484375 10.0625 -15.328125 10.46875 -15.015625 C 10.882812 -14.710938 11.164062 -14.316406 11.3125 -13.828125 C 11.332031 -13.796875 11.351562 -13.753906 11.375 -13.703125 C 11.394531 -13.648438 11.410156 -13.601562 11.421875 -13.5625 Z M 11.421875 -13.5625 "/></g></g></g><g fill="#000000" fill-opacity="1"><g transform="translate(148.952167, 19.803121)"><g><path d="M 13.46875 -15.28125 C 13.550781 -15.28125 13.660156 -15.242188 13.796875 -15.171875 C 13.929688 -15.097656 14 -14.921875 14 -14.640625 L 14 -0.625 C 14 -0.34375 13.929688 -0.164062 13.796875 -0.09375 C 13.660156 -0.0195312 13.550781 0.015625 13.46875 0.015625 L 11.765625 0.015625 C 11.679688 0.015625 11.578125 -0.0195312 11.453125 -0.09375 C 11.328125 -0.164062 11.265625 -0.34375 11.265625 -0.625 L 11.265625 -6.34375 L 4.234375 -6.34375 L 4.234375 -0.625 C 4.234375 -0.34375 4.164062 -0.164062 4.03125 -0.09375 C 3.90625 -0.0195312 3.796875 0.015625 3.703125 0.015625 L 2.015625 0.015625 C 1.929688 0.015625 1.820312 -0.0195312 1.6875 -0.09375 C 1.550781 -0.164062 1.484375 -0.34375 1.484375 -0.625 L 1.484375 -14.640625 C 1.484375 -14.921875 1.550781 -15.097656 1.6875 -15.171875 C 1.820312 -15.242188 1.929688 -15.28125 2.015625 -15.28125 L 3.703125 -15.28125 C 3.796875 -15.28125 3.90625 -15.242188 4.03125 -15.171875 C 4.164062 -15.097656 4.234375 -14.921875 4.234375 -14.640625 L 4.234375 -9.09375 L 11.265625 -9.09375 L 11.265625 -14.640625 C 11.265625 -14.921875 11.328125 -15.097656 11.453125 -15.171875 C 11.578125 -15.242188 11.679688 -15.28125 11.765625 -15.28125 Z M 13.46875 -15.28125 "/></g></g></g><g fill="#000000" fill-opacity="1"><g transform="translate(165.36421, 19.803121)"><g><path d="M 11.421875 -13.5625 L 16.640625 -0.703125 C 16.710938 -0.523438 16.726562 -0.378906 16.6875 -0.265625 C 16.675781 -0.210938 16.640625 -0.148438 16.578125 -0.078125 C 16.523438 -0.015625 16.425781 0.015625 16.28125 0.015625 L 14.296875 0.015625 C 14.035156 0.015625 13.859375 -0.117188 13.765625 -0.390625 L 9.15625 -11.875 C 9.144531 -11.894531 9.140625 -11.90625 9.140625 -11.90625 L 9.0625 -11.90625 C 9.0625 -11.90625 9.054688 -11.898438 9.046875 -11.890625 C 9.046875 -11.890625 9.039062 -11.875 9.03125 -11.84375 L 6.65625 -5.84375 L 8.953125 -5.84375 C 9.210938 -5.84375 9.394531 -5.71875 9.5 -5.46875 L 10.15625 -3.828125 C 10.21875 -3.609375 10.195312 -3.425781 10.09375 -3.28125 C 9.988281 -3.101562 9.828125 -3.015625 9.609375 -3.015625 L 5.546875 -3.015625 L 4.484375 -0.375 C 4.390625 -0.113281 4.21875 0.015625 3.96875 0.015625 L 1.921875 0.015625 C 1.773438 0.015625 1.675781 -0.015625 1.625 -0.078125 C 1.570312 -0.148438 1.535156 -0.210938 1.515625 -0.265625 C 1.484375 -0.367188 1.5 -0.515625 1.5625 -0.703125 L 6.734375 -13.5625 C 6.984375 -14.21875 7.253906 -14.664062 7.546875 -14.90625 C 7.585938 -14.9375 7.628906 -14.96875 7.671875 -15 C 7.722656 -15.039062 7.773438 -15.070312 7.828125 -15.09375 C 8.203125 -15.351562 8.628906 -15.484375 9.109375 -15.484375 C 9.609375 -15.484375 10.0625 -15.328125 10.46875 -15.015625 C 10.882812 -14.710938 11.164062 -14.316406 11.3125 -13.828125 C 11.332031 -13.796875 11.351562 -13.753906 11.375 -13.703125 C 11.394531 -13.648438 11.410156 -13.601562 11.421875 -13.5625 Z M 11.421875 -13.5625 "/></g></g></g><g fill="#000000" fill-opacity="1"><g transform="translate(184.502326, 19.803121)"><g><path d="M 12.1875 -2.75 C 12.269531 -2.75 12.375 -2.707031 12.5 -2.625 C 12.632812 -2.550781 12.703125 -2.375 12.703125 -2.09375 L 12.703125 -0.625 C 12.703125 -0.34375 12.632812 -0.164062 12.5 -0.09375 C 12.375 -0.0195312 12.269531 0.015625 12.1875 0.015625 L 6.0625 0.015625 C 5.25 0.015625 4.554688 -0.0859375 3.984375 -0.296875 C 3.398438 -0.492188 2.921875 -0.835938 2.546875 -1.328125 C 2.179688 -1.773438 1.914062 -2.382812 1.75 -3.15625 C 1.570312 -3.90625 1.484375 -4.789062 1.484375 -5.8125 L 1.484375 -14.640625 C 1.484375 -14.929688 1.550781 -15.109375 1.6875 -15.171875 C 1.820312 -15.242188 1.929688 -15.28125 2.015625 -15.28125 L 3.734375 -15.28125 C 3.804688 -15.28125 3.910156 -15.242188 4.046875 -15.171875 C 4.179688 -15.109375 4.25 -14.929688 4.25 -14.640625 L 4.25 -5.484375 C 4.25 -5.210938 4.253906 -4.957031 4.265625 -4.71875 C 4.273438 -4.488281 4.300781 -4.28125 4.34375 -4.09375 C 4.394531 -3.757812 4.5 -3.488281 4.65625 -3.28125 C 4.78125 -3.082031 4.957031 -2.945312 5.1875 -2.875 C 5.4375 -2.789062 5.757812 -2.75 6.15625 -2.75 Z M 12.1875 -2.75 "/></g></g></g><g fill="#000000" fill-opacity="1"><g transform="translate(199.616243, 19.803121)"><g><path d="M 11.421875 -13.5625 L 16.640625 -0.703125 C 16.710938 -0.523438 16.726562 -0.378906 16.6875 -0.265625 C 16.675781 -0.210938 16.640625 -0.148438 16.578125 -0.078125 C 16.523438 -0.015625 16.425781 0.015625 16.28125 0.015625 L 14.296875 0.015625 C 14.035156 0.015625 13.859375 -0.117188 13.765625 -0.390625 L 9.15625 -11.875 C 9.144531 -11.894531 9.140625 -11.90625 9.140625 -11.90625 L 9.0625 -11.90625 C 9.0625 -11.90625 9.054688 -11.898438 9.046875 -11.890625 C 9.046875 -11.890625 9.039062 -11.875 9.03125 -11.84375 L 6.65625 -5.84375 L 8.953125 -5.84375 C 9.210938 -5.84375 9.394531 -5.71875 9.5 -5.46875 L 10.15625 -3.828125 C 10.21875 -3.609375 10.195312 -3.425781 10.09375 -3.28125 C 9.988281 -3.101562 9.828125 -3.015625 9.609375 -3.015625 L 5.546875 -3.015625 L 4.484375 -0.375 C 4.390625 -0.113281 4.21875 0.015625 3.96875 0.015625 L 1.921875 0.015625 C 1.773438 0.015625 1.675781 -0.015625 1.625 -0.078125 C 1.570312 -0.148438 1.535156 -0.210938 1.515625 -0.265625 C 1.484375 -0.367188 1.5 -0.515625 1.5625 -0.703125 L 6.734375 -13.5625 C 6.984375 -14.21875 7.253906 -14.664062 7.546875 -14.90625 C 7.585938 -14.9375 7.628906 -14.96875 7.671875 -15 C 7.722656 -15.039062 7.773438 -15.070312 7.828125 -15.09375 C 8.203125 -15.351562 8.628906 -15.484375 9.109375 -15.484375 C 9.609375 -15.484375 10.0625 -15.328125 10.46875 -15.015625 C 10.882812 -14.710938 11.164062 -14.316406 11.3125 -13.828125 C 11.332031 -13.796875 11.351562 -13.753906 11.375 -13.703125 C 11.394531 -13.648438 11.410156 -13.601562 11.421875 -13.5625 Z M 11.421875 -13.5625 "/></g></g></g><g fill="#000000" fill-opacity="1"><g transform="translate(218.754359, 19.803121)"><g><path d="M 10.375 -6.359375 L 13.578125 -0.796875 C 13.648438 -0.710938 13.675781 -0.570312 13.65625 -0.375 C 13.625 -0.113281 13.476562 0.015625 13.21875 0.015625 L 11.21875 0.015625 C 11.03125 0.015625 10.898438 -0.0195312 10.828125 -0.09375 C 10.753906 -0.15625 10.6875 -0.242188 10.625 -0.359375 L 7.734375 -5.4375 C 7.535156 -5.800781 7.332031 -6.039062 7.125 -6.15625 C 6.914062 -6.28125 6.582031 -6.34375 6.125 -6.34375 L 4.25 -6.34375 L 4.25 -0.625 C 4.25 -0.34375 4.179688 -0.164062 4.046875 -0.09375 C 3.910156 -0.0195312 3.804688 0.015625 3.734375 0.015625 L 2.015625 0.015625 C 1.941406 0.015625 1.832031 -0.0195312 1.6875 -0.09375 C 1.550781 -0.164062 1.484375 -0.34375 1.484375 -0.625 L 1.484375 -14.640625 C 1.484375 -14.929688 1.550781 -15.109375 1.6875 -15.171875 C 1.832031 -15.242188 1.941406 -15.28125 2.015625 -15.28125 L 3.734375 -15.28125 C 3.804688 -15.28125 3.910156 -15.242188 4.046875 -15.171875 C 4.179688 -15.109375 4.25 -14.929688 4.25 -14.640625 L 4.25 -9.09375 L 5.953125 -9.09375 C 6.078125 -9.09375 6.1875 -9.09375 6.28125 -9.09375 C 6.382812 -9.101562 6.472656 -9.113281 6.546875 -9.125 C 6.691406 -9.144531 6.820312 -9.179688 6.9375 -9.234375 C 7.050781 -9.296875 7.148438 -9.382812 7.234375 -9.5 C 7.285156 -9.5625 7.335938 -9.628906 7.390625 -9.703125 C 7.441406 -9.785156 7.492188 -9.867188 7.546875 -9.953125 L 10.34375 -14.90625 C 10.394531 -15.007812 10.460938 -15.097656 10.546875 -15.171875 C 10.628906 -15.242188 10.769531 -15.28125 10.96875 -15.28125 L 12.796875 -15.28125 C 13.015625 -15.28125 13.15625 -15.175781 13.21875 -14.96875 C 13.25 -14.800781 13.234375 -14.648438 13.171875 -14.515625 L 10.109375 -9.140625 C 9.921875 -8.835938 9.753906 -8.5625 9.609375 -8.3125 C 9.546875 -8.21875 9.484375 -8.128906 9.421875 -8.046875 C 9.367188 -7.972656 9.3125 -7.898438 9.25 -7.828125 C 9.4375 -7.648438 9.625 -7.4375 9.8125 -7.1875 C 10 -6.945312 10.1875 -6.671875 10.375 -6.359375 Z M 10.375 -6.359375 "/></g></g></g><g fill="#000000" fill-opacity="1"><g transform="translate(234.832599, 19.803121)"><g><path d="M 10.4375 -9.125 C 11.40625 -9.125 12.144531 -8.785156 12.65625 -8.109375 C 13.132812 -7.441406 13.375 -6.5 13.375 -5.28125 L 13.375 -3.65625 C 13.375 -2.59375 13.140625 -1.71875 12.671875 -1.03125 C 12.179688 -0.34375 11.425781 0 10.40625 0 L 2.046875 0 C 1.953125 0 1.835938 -0.03125 1.703125 -0.09375 C 1.566406 -0.164062 1.5 -0.34375 1.5 -0.625 L 1.5 -2.109375 C 1.5 -2.398438 1.566406 -2.578125 1.703125 -2.640625 C 1.835938 -2.710938 1.953125 -2.75 2.046875 -2.75 L 9.953125 -2.75 C 10.117188 -2.75 10.234375 -2.773438 10.296875 -2.828125 C 10.367188 -2.878906 10.421875 -2.929688 10.453125 -2.984375 C 10.566406 -3.171875 10.625 -3.429688 10.625 -3.765625 L 10.625 -5.359375 C 10.625 -5.816406 10.550781 -6.097656 10.40625 -6.203125 C 10.257812 -6.316406 10.117188 -6.375 9.984375 -6.375 L 4.421875 -6.375 C 4.035156 -6.375 3.640625 -6.421875 3.234375 -6.515625 C 2.835938 -6.617188 2.492188 -6.863281 2.203125 -7.25 C 1.722656 -7.925781 1.484375 -8.914062 1.484375 -10.21875 L 1.484375 -11.625 C 1.484375 -12.71875 1.722656 -13.597656 2.203125 -14.265625 C 2.691406 -14.941406 3.441406 -15.28125 4.453125 -15.28125 L 12.4375 -15.28125 C 12.519531 -15.28125 12.628906 -15.242188 12.765625 -15.171875 C 12.898438 -15.109375 12.96875 -14.9375 12.96875 -14.65625 L 12.96875 -13.171875 C 12.96875 -12.878906 12.898438 -12.695312 12.765625 -12.625 C 12.628906 -12.5625 12.519531 -12.53125 12.4375 -12.53125 L 4.890625 -12.53125 C 4.734375 -12.53125 4.617188 -12.503906 4.546875 -12.453125 C 4.484375 -12.410156 4.429688 -12.359375 4.390625 -12.296875 C 4.296875 -12.097656 4.25 -11.835938 4.25 -11.515625 L 4.25 -10.140625 C 4.25 -9.679688 4.316406 -9.394531 4.453125 -9.28125 C 4.597656 -9.175781 4.738281 -9.125 4.875 -9.125 Z M 10.4375 -9.125 "/></g></g></g><g fill="#000000" fill-opacity="1"><g transform="translate(250.614129, 19.803121)"><g><path d="M 13.46875 -15.28125 C 13.550781 -15.28125 13.660156 -15.242188 13.796875 -15.171875 C 13.929688 -15.097656 14 -14.921875 14 -14.640625 L 14 -0.625 C 14 -0.34375 13.929688 -0.164062 13.796875 -0.09375 C 13.660156 -0.0195312 13.550781 0.015625 13.46875 0.015625 L 11.765625 0.015625 C 11.679688 0.015625 11.578125 -0.0195312 11.453125 -0.09375 C 11.328125 -0.164062 11.265625 -0.34375 11.265625 -0.625 L 11.265625 -6.34375 L 4.234375 -6.34375 L 4.234375 -0.625 C 4.234375 -0.34375 4.164062 -0.164062 4.03125 -0.09375 C 3.90625 -0.0195312 3.796875 0.015625 3.703125 0.015625 L 2.015625 0.015625 C 1.929688 0.015625 1.820312 -0.0195312 1.6875 -0.09375 C 1.550781 -0.164062 1.484375 -0.34375 1.484375 -0.625 L 1.484375 -14.640625 C 1.484375 -14.921875 1.550781 -15.097656 1.6875 -15.171875 C 1.820312 -15.242188 1.929688 -15.28125 2.015625 -15.28125 L 3.703125 -15.28125 C 3.796875 -15.28125 3.90625 -15.242188 4.03125 -15.171875 C 4.164062 -15.097656 4.234375 -14.921875 4.234375 -14.640625 L 4.234375 -9.09375 L 11.265625 -9.09375 L 11.265625 -14.640625 C 11.265625 -14.921875 11.328125 -15.097656 11.453125 -15.171875 C 11.578125 -15.242188 11.679688 -15.28125 11.765625 -15.28125 Z M 13.46875 -15.28125 "/></g></g></g><g fill="#000000" fill-opacity="1"><g transform="translate(267.026172, 19.803121)"><g><path d="M 16.96875 -15.28125 C 17.582031 -15.28125 18.003906 -15.082031 18.234375 -14.6875 C 18.429688 -14.34375 18.53125 -13.742188 18.53125 -12.890625 L 18.53125 -0.625 C 18.53125 -0.34375 18.460938 -0.164062 18.328125 -0.09375 C 18.191406 -0.0195312 18.078125 0.015625 17.984375 0.015625 L 16.390625 0.015625 C 16.316406 0.015625 16.210938 -0.0195312 16.078125 -0.09375 C 15.941406 -0.164062 15.875 -0.34375 15.875 -0.625 L 15.875 -11.78125 C 15.875 -11.789062 15.875 -11.796875 15.875 -11.796875 C 15.875 -11.804688 15.875 -11.8125 15.875 -11.8125 L 15.78125 -11.8125 C 15.757812 -11.8125 15.75 -11.800781 15.75 -11.78125 L 12.5625 -3.90625 C 12.4375 -3.53125 12.304688 -3.195312 12.171875 -2.90625 C 12.109375 -2.769531 12.035156 -2.644531 11.953125 -2.53125 C 11.867188 -2.425781 11.789062 -2.320312 11.71875 -2.21875 C 11.53125 -2.019531 11.332031 -1.882812 11.125 -1.8125 C 10.925781 -1.738281 10.679688 -1.703125 10.390625 -1.703125 L 9.625 -1.703125 C 9.351562 -1.703125 9.109375 -1.738281 8.890625 -1.8125 C 8.773438 -1.851562 8.671875 -1.910156 8.578125 -1.984375 C 8.484375 -2.054688 8.390625 -2.132812 8.296875 -2.21875 C 8.128906 -2.414062 7.976562 -2.644531 7.84375 -2.90625 C 7.71875 -3.195312 7.585938 -3.53125 7.453125 -3.90625 L 4.28125 -11.765625 C 4.269531 -11.796875 4.253906 -11.8125 4.234375 -11.8125 L 4.140625 -11.8125 C 4.140625 -11.8125 4.140625 -11.804688 4.140625 -11.796875 C 4.140625 -11.796875 4.140625 -11.789062 4.140625 -11.78125 L 4.140625 -0.625 C 4.140625 -0.34375 4.070312 -0.164062 3.9375 -0.09375 C 3.8125 -0.0195312 3.703125 0.015625 3.609375 0.015625 L 2.015625 0.015625 C 1.929688 0.015625 1.820312 -0.0195312 1.6875 -0.09375 C 1.550781 -0.164062 1.484375 -0.34375 1.484375 -0.625 L 1.484375 -12.890625 C 1.484375 -13.742188 1.582031 -14.34375 1.78125 -14.6875 C 2 -15.082031 2.425781 -15.28125 3.0625 -15.28125 L 4.765625 -15.28125 C 5.035156 -15.28125 5.253906 -15.253906 5.421875 -15.203125 C 5.628906 -15.140625 5.800781 -15.050781 5.9375 -14.9375 C 6 -14.851562 6.0625 -14.769531 6.125 -14.6875 C 6.195312 -14.601562 6.257812 -14.503906 6.3125 -14.390625 C 6.351562 -14.273438 6.398438 -14.144531 6.453125 -14 C 6.515625 -13.863281 6.570312 -13.710938 6.625 -13.546875 L 9.890625 -5.34375 C 9.898438 -5.300781 9.910156 -5.273438 9.921875 -5.265625 C 9.929688 -5.265625 9.9375 -5.265625 9.9375 -5.265625 L 10.125 -5.265625 C 10.144531 -5.265625 10.164062 -5.289062 10.1875 -5.34375 L 13.46875 -13.546875 C 13.53125 -13.710938 13.582031 -13.863281 13.625 -14 C 13.675781 -14.144531 13.726562 -14.273438 13.78125 -14.390625 C 13.84375 -14.503906 13.90625 -14.601562 13.96875 -14.6875 C 14.03125 -14.769531 14.09375 -14.851562 14.15625 -14.9375 C 14.300781 -15.070312 14.46875 -15.160156 14.65625 -15.203125 C 14.8125 -15.253906 15.023438 -15.28125 15.296875 -15.28125 Z M 16.96875 -15.28125 "/></g></g></g><g fill="#000000" fill-opacity="1"><g transform="translate(287.96312, 19.803121)"><g><path d="M 3.703125 -15.28125 C 3.785156 -15.28125 3.894531 -15.242188 4.03125 -15.171875 C 4.164062 -15.097656 4.234375 -14.921875 4.234375 -14.640625 L 4.234375 -0.625 C 4.234375 -0.34375 4.164062 -0.164062 4.03125 -0.09375 C 3.894531 -0.0195312 3.785156 0.015625 3.703125 0.015625 L 2 0.015625 C 1.925781 0.015625 1.820312 -0.0195312 1.6875 -0.09375 C 1.550781 -0.164062 1.484375 -0.34375 1.484375 -0.625 L 1.484375 -14.640625 C 1.484375 -14.921875 1.550781 -15.097656 1.6875 -15.171875 C 1.820312 -15.242188 1.925781 -15.28125 2 -15.28125 Z M 3.703125 -15.28125 "/></g></g></g><g fill="#000000" fill-opacity="1"><g transform="translate(122.837502, 46.674908)"><g><path d="M 5.484375 0.28125 C 4.703125 0.28125 3.957031 0.1875 3.25 0 C 2.550781 -0.195312 1.941406 -0.472656 1.421875 -0.828125 C 0.898438 -1.179688 0.503906 -1.585938 0.234375 -2.046875 L 1.140625 -3 C 1.347656 -2.601562 1.671875 -2.25 2.109375 -1.9375 C 2.554688 -1.625 3.078125 -1.378906 3.671875 -1.203125 C 4.273438 -1.035156 4.90625 -0.953125 5.5625 -0.953125 C 6.113281 -0.953125 6.585938 -1.007812 6.984375 -1.125 C 7.390625 -1.238281 7.703125 -1.398438 7.921875 -1.609375 C 8.148438 -1.816406 8.265625 -2.046875 8.265625 -2.296875 C 8.265625 -2.617188 8.078125 -2.878906 7.703125 -3.078125 C 7.335938 -3.285156 6.75 -3.445312 5.9375 -3.5625 L 3.921875 -3.875 C 2.804688 -4.019531 2 -4.269531 1.5 -4.625 C 1 -4.988281 0.75 -5.5 0.75 -6.15625 C 0.75 -6.707031 0.925781 -7.175781 1.28125 -7.5625 C 1.644531 -7.957031 2.140625 -8.257812 2.765625 -8.46875 C 3.390625 -8.6875 4.109375 -8.796875 4.921875 -8.796875 C 5.554688 -8.796875 6.148438 -8.722656 6.703125 -8.578125 C 7.253906 -8.429688 7.742188 -8.234375 8.171875 -7.984375 C 8.609375 -7.734375 8.953125 -7.441406 9.203125 -7.109375 L 8.421875 -6.125 C 8.203125 -6.414062 7.910156 -6.671875 7.546875 -6.890625 C 7.191406 -7.109375 6.789062 -7.273438 6.34375 -7.390625 C 5.894531 -7.515625 5.425781 -7.578125 4.9375 -7.578125 C 4.445312 -7.578125 4.007812 -7.519531 3.625 -7.40625 C 3.238281 -7.300781 2.9375 -7.148438 2.71875 -6.953125 C 2.507812 -6.753906 2.40625 -6.523438 2.40625 -6.265625 C 2.40625 -5.972656 2.550781 -5.738281 2.84375 -5.5625 C 3.144531 -5.382812 3.628906 -5.253906 4.296875 -5.171875 L 6.28125 -4.890625 C 7.550781 -4.710938 8.472656 -4.429688 9.046875 -4.046875 C 9.617188 -3.671875 9.90625 -3.140625 9.90625 -2.453125 C 9.90625 -1.898438 9.722656 -1.414062 9.359375 -1 C 8.992188 -0.59375 8.476562 -0.273438 7.8125 -0.046875 C 7.144531 0.171875 6.367188 0.28125 5.484375 0.28125 Z M 5.484375 0.28125 "/></g></g></g><g fill="#000000" fill-opacity="1"><g transform="translate(136.673521, 46.674908)"><g><path d="M 6.375 0.296875 C 5.488281 0.296875 4.679688 0.1875 3.953125 -0.03125 C 3.234375 -0.25 2.613281 -0.5625 2.09375 -0.96875 C 1.570312 -1.375 1.164062 -1.851562 0.875 -2.40625 C 0.59375 -2.957031 0.453125 -3.570312 0.453125 -4.25 C 0.453125 -4.914062 0.59375 -5.523438 0.875 -6.078125 C 1.164062 -6.640625 1.570312 -7.125 2.09375 -7.53125 C 2.613281 -7.9375 3.234375 -8.25 3.953125 -8.46875 C 4.679688 -8.695312 5.488281 -8.8125 6.375 -8.8125 C 7.25 -8.8125 8.050781 -8.695312 8.78125 -8.46875 C 9.507812 -8.25 10.132812 -7.9375 10.65625 -7.53125 C 11.1875 -7.125 11.59375 -6.640625 11.875 -6.078125 C 12.15625 -5.523438 12.296875 -4.914062 12.296875 -4.25 C 12.296875 -3.570312 12.15625 -2.957031 11.875 -2.40625 C 11.59375 -1.851562 11.1875 -1.375 10.65625 -0.96875 C 10.132812 -0.5625 9.507812 -0.25 8.78125 -0.03125 C 8.050781 0.1875 7.25 0.296875 6.375 0.296875 Z M 6.375 -1 C 7.207031 -1 7.941406 -1.132812 8.578125 -1.40625 C 9.222656 -1.6875 9.722656 -2.066406 10.078125 -2.546875 C 10.441406 -3.035156 10.625 -3.601562 10.625 -4.25 C 10.625 -4.882812 10.441406 -5.445312 10.078125 -5.9375 C 9.722656 -6.425781 9.222656 -6.804688 8.578125 -7.078125 C 7.941406 -7.359375 7.207031 -7.5 6.375 -7.5 C 5.539062 -7.5 4.800781 -7.359375 4.15625 -7.078125 C 3.519531 -6.804688 3.019531 -6.425781 2.65625 -5.9375 C 2.300781 -5.445312 2.125 -4.882812 2.125 -4.25 C 2.125 -3.601562 2.300781 -3.035156 2.65625 -2.546875 C 3.019531 -2.066406 3.519531 -1.6875 4.15625 -1.40625 C 4.800781 -1.132812 5.539062 -1 6.375 -1 Z M 6.375 -1 "/></g></g></g><g fill="#000000" fill-opacity="1"><g transform="translate(153.113551, 46.674908)"><g><path d="M 0.59375 0 L 0.59375 -8.515625 L 8.75 -8.515625 L 8.75 -7.203125 L 2.265625 -7.203125 L 2.265625 -4.734375 L 8.046875 -4.734375 L 8.046875 -3.5625 L 2.265625 -3.5625 L 2.265625 0 Z M 0.59375 0 "/></g></g></g><g fill="#000000" fill-opacity="1"><g transform="translate(165.73757, 46.674908)"><g><path d="M 3.890625 0 L 3.890625 -7.203125 L 0.078125 -7.203125 L 0.078125 -8.515625 L 9.375 -8.515625 L 9.375 -7.203125 L 5.5625 -7.203125 L 5.5625 0 Z M 3.890625 0 "/></g></g></g><g fill="#000000" fill-opacity="1"><g transform="translate(178.86559, 46.674908)"><g><path d="M 3.75 0 L -0.015625 -8.515625 L 1.734375 -8.515625 L 4.796875 -1.421875 L 4.8125 -1.421875 L 7.71875 -8.515625 L 9.828125 -8.515625 L 12.75 -1.421875 L 12.765625 -1.421875 L 15.8125 -8.515625 L 17.546875 -8.515625 L 13.796875 0 L 11.765625 0 L 8.78125 -7.078125 L 8.765625 -7.078125 L 5.765625 0 Z M 3.75 0 "/></g></g></g><g fill="#000000" fill-opacity="1"><g transform="translate(200.093623, 46.674908)"><g><path d="M 0.046875 0 L 4.46875 -8.515625 L 6.421875 -8.515625 L 10.8125 0 L 9.0625 0 L 8.09375 -1.859375 L 2.765625 -1.859375 L 1.78125 0 Z M 3.25 -3.03125 L 7.609375 -3.03125 L 5.453125 -7.296875 L 5.421875 -7.296875 Z M 3.25 -3.03125 "/></g></g></g><g fill="#000000" fill-opacity="1"><g transform="translate(214.637644, 46.674908)"><g><path d="M 9.484375 0.234375 C 9.035156 0.234375 8.675781 0.117188 8.40625 -0.109375 C 8.144531 -0.347656 7.9375 -0.628906 7.78125 -0.953125 L 7.125 -2.328125 C 6.976562 -2.628906 6.785156 -2.863281 6.546875 -3.03125 C 6.304688 -3.207031 6.035156 -3.296875 5.734375 -3.296875 L 2.265625 -3.296875 L 2.265625 0 L 0.59375 0 L 0.59375 -8.515625 L 7.078125 -8.515625 C 8.078125 -8.515625 8.863281 -8.285156 9.4375 -7.828125 C 10.019531 -7.367188 10.3125 -6.75 10.3125 -5.96875 C 10.3125 -5.332031 10.085938 -4.800781 9.640625 -4.375 C 9.191406 -3.957031 8.570312 -3.703125 7.78125 -3.609375 L 7.78125 -3.59375 C 7.988281 -3.488281 8.160156 -3.347656 8.296875 -3.171875 C 8.441406 -3.003906 8.566406 -2.804688 8.671875 -2.578125 L 9.28125 -1.375 C 9.351562 -1.226562 9.4375 -1.101562 9.53125 -1 C 9.625 -0.90625 9.75 -0.859375 9.90625 -0.859375 C 10.039062 -0.859375 10.171875 -0.898438 10.296875 -0.984375 C 10.421875 -1.066406 10.53125 -1.175781 10.625 -1.3125 L 11.125 -0.53125 C 10.945312 -0.300781 10.710938 -0.117188 10.421875 0.015625 C 10.128906 0.160156 9.816406 0.234375 9.484375 0.234375 Z M 2.265625 -4.453125 L 6.734375 -4.453125 C 7.316406 -4.453125 7.78125 -4.582031 8.125 -4.84375 C 8.46875 -5.101562 8.640625 -5.445312 8.640625 -5.875 C 8.640625 -6.320312 8.46875 -6.671875 8.125 -6.921875 C 7.78125 -7.179688 7.316406 -7.3125 6.734375 -7.3125 L 2.265625 -7.3125 Z M 2.265625 -4.453125 "/></g></g></g><g fill="#000000" fill-opacity="1"><g transform="translate(229.445662, 46.674908)"><g><path d="M 0.59375 0 L 0.59375 -8.515625 L 9.0625 -8.515625 L 9.0625 -7.28125 L 2.21875 -7.28125 L 2.21875 -4.9375 L 8.578125 -4.9375 L 8.578125 -3.8125 L 2.21875 -3.8125 L 2.21875 -1.21875 L 9.1875 -1.21875 L 9.1875 0 Z M 0.59375 0 "/></g></g></g><g fill="#000000" fill-opacity="1"><g transform="translate(242.549684, 46.674908)"><g><path d="M 5.484375 0.28125 C 4.703125 0.28125 3.957031 0.1875 3.25 0 C 2.550781 -0.195312 1.941406 -0.472656 1.421875 -0.828125 C 0.898438 -1.179688 0.503906 -1.585938 0.234375 -2.046875 L 1.140625 -3 C 1.347656 -2.601562 1.671875 -2.25 2.109375 -1.9375 C 2.554688 -1.625 3.078125 -1.378906 3.671875 -1.203125 C 4.273438 -1.035156 4.90625 -0.953125 5.5625 -0.953125 C 6.113281 -0.953125 6.585938 -1.007812 6.984375 -1.125 C 7.390625 -1.238281 7.703125 -1.398438 7.921875 -1.609375 C 8.148438 -1.816406 8.265625 -2.046875 8.265625 -2.296875 C 8.265625 -2.617188 8.078125 -2.878906 7.703125 -3.078125 C 7.335938 -3.285156 6.75 -3.445312 5.9375 -3.5625 L 3.921875 -3.875 C 2.804688 -4.019531 2 -4.269531 1.5 -4.625 C 1 -4.988281 0.75 -5.5 0.75 -6.15625 C 0.75 -6.707031 0.925781 -7.175781 1.28125 -7.5625 C 1.644531 -7.957031 2.140625 -8.257812 2.765625 -8.46875 C 3.390625 -8.6875 4.109375 -8.796875 4.921875 -8.796875 C 5.554688 -8.796875 6.148438 -8.722656 6.703125 -8.578125 C 7.253906 -8.429688 7.742188 -8.234375 8.171875 -7.984375 C 8.609375 -7.734375 8.953125 -7.441406 9.203125 -7.109375 L 8.421875 -6.125 C 8.203125 -6.414062 7.910156 -6.671875 7.546875 -6.890625 C 7.191406 -7.109375 6.789062 -7.273438 6.34375 -7.390625 C 5.894531 -7.515625 5.425781 -7.578125 4.9375 -7.578125 C 4.445312 -7.578125 4.007812 -7.519531 3.625 -7.40625 C 3.238281 -7.300781 2.9375 -7.148438 2.71875 -6.953125 C 2.507812 -6.753906 2.40625 -6.523438 2.40625 -6.265625 C 2.40625 -5.972656 2.550781 -5.738281 2.84375 -5.5625 C 3.144531 -5.382812 3.628906 -5.253906 4.296875 -5.171875 L 6.28125 -4.890625 C 7.550781 -4.710938 8.472656 -4.429688 9.046875 -4.046875 C 9.617188 -3.671875 9.90625 -3.140625 9.90625 -2.453125 C 9.90625 -1.898438 9.722656 -1.414062 9.359375 -1 C 8.992188 -0.59375 8.476562 -0.273438 7.8125 -0.046875 C 7.144531 0.171875 6.367188 0.28125 5.484375 0.28125 Z M 5.484375 0.28125 "/></g></g></g></svg>