<svg xmlns="http://www.w3.org/2000/svg" xmlns:xlink="http://www.w3.org/1999/xlink" width="65" zoomAndPan="magnify" viewBox="0 0 48.75 50.249999" height="67" preserveAspectRatio="xMidYMid meet" version="1.0"><defs><clipPath id="ca650f4001"><path d="M 0.234375 0 L 48.269531 0 L 48.269531 49.511719 L 0.234375 49.511719 Z M 0.234375 0 " clip-rule="nonzero"/></clipPath><clipPath id="3704db91e9"><path d="M 2.078125 3 L 47.894531 3 L 47.894531 48.773438 L 2.078125 48.773438 Z M 2.078125 3 " clip-rule="nonzero"/></clipPath><clipPath id="839e47b062"><path d="M 22 26 L 40 26 L 40 48.773438 L 22 48.773438 Z M 22 26 " clip-rule="nonzero"/></clipPath><clipPath id="ee4e156e32"><path d="M 3.140625 30.703125 L 3.964844 30.703125 L 3.964844 32.84375 L 3.140625 32.84375 Z M 3.140625 30.703125 " clip-rule="nonzero"/></clipPath><clipPath id="b8f269bbc3"><path d="M 3.929688 30.78125 C 4.152344 35.140625 2.894531 31.222656 3.191406 30.78125 C 3.339844 30.632812 3.929688 30.78125 3.929688 30.78125 " clip-rule="nonzero"/></clipPath></defs><g clip-path="url(#ca650f4001)"><path fill="#ffffff" d="M 0.234375 0 L 48.269531 0 L 48.269531 49.511719 L 0.234375 49.511719 Z M 0.234375 0 " fill-opacity="1" fill-rule="nonzero"/></g><path fill="#2036cd" d="M 21.085938 31.363281 L 13.417969 33.417969 C 13.066406 33.511719 12.78125 33.917969 12.78125 34.320312 L 12.78125 39.105469 C 12.78125 39.507812 13.066406 39.761719 13.417969 39.667969 L 21.078125 37.617188 L 21.078125 35.84375 L 14.722656 37.550781 L 14.722656 34.832031 L 21.082031 33.128906 Z M 36.9375 27.171875 C 36.859375 27.15625 36.777344 27.15625 36.6875 27.179688 L 31.792969 28.492188 L 33.847656 29.710938 L 35.390625 29.296875 L 35.390625 30.625 L 37.324219 31.773438 L 37.324219 27.746094 C 37.324219 27.445312 37.167969 27.226562 36.9375 27.171875 Z M 36.9375 27.171875 " fill-opacity="1" fill-rule="evenodd"/><g clip-path="url(#3704db91e9)"><path fill="#2036cd" d="M 13.105469 12.011719 L 6.859375 13.6875 C 4.292969 14.375 2.191406 17.027344 2.191406 19.601562 L 2.191406 44.664062 C 2.191406 47.230469 4.292969 48.765625 6.859375 48.078125 L 21.683594 44.105469 C 21.234375 43.46875 21.066406 43 21.066406 42.320312 L 6.859375 46.128906 C 5.332031 46.539062 4.140625 45.660156 4.140625 44.140625 L 4.140625 19.078125 C 4.140625 17.558594 5.332031 16.046875 6.859375 15.636719 L 13.105469 13.964844 Z M 44.640625 3.777344 C 44.199219 3.757812 43.734375 3.808594 43.253906 3.933594 L 37.007812 5.609375 L 37.007812 7.5625 L 43.253906 5.886719 C 44.777344 5.476562 45.972656 6.351562 45.972656 7.871094 L 45.972656 32.933594 C 45.972656 34.453125 44.777344 35.964844 43.253906 36.375 L 41.398438 36.871094 L 40.390625 39.09375 L 43.253906 38.324219 C 45.820312 37.636719 47.921875 34.976562 47.921875 32.410156 L 47.921875 7.347656 C 47.921875 5.257812 46.535156 3.859375 44.640625 3.777344 Z M 44.640625 3.777344 " fill-opacity="1" fill-rule="evenodd"/></g><path fill="#2036cd" d="M 25.054688 0.644531 C 19.945312 2.011719 15.804688 7.265625 15.804688 12.371094 C 15.804688 14.824219 16.777344 16.925781 18.511719 18.191406 C 20.25 19.460938 22.601562 19.808594 25.054688 19.152344 C 27.507812 18.492188 29.867188 16.886719 31.601562 14.6875 C 33.335938 12.484375 34.308594 9.871094 34.308594 7.414062 C 34.308594 4.960938 33.335938 2.871094 31.597656 1.597656 C 29.863281 0.328125 27.507812 -0.015625 25.054688 0.644531 Z M 25.304688 4.398438 C 25.464844 4.363281 25.621094 4.34375 25.773438 4.335938 C 27.035156 4.304688 27.8125 5.378906 27.507812 6.734375 C 27.207031 8.089844 25.941406 9.222656 24.679688 9.253906 C 23.414062 9.289062 22.636719 8.214844 22.941406 6.855469 C 23.199219 5.691406 24.1875 4.65625 25.304688 4.398438 Z M 22.867188 11.375 L 27.246094 10.203125 C 28.261719 9.925781 29.175781 10.339844 29.46875 11.1875 L 29.832031 12.242188 C 30.199219 13.324219 29.28125 14.25 27.996094 14.921875 C 26.046875 15.941406 24.109375 16.464844 22.121094 16.492188 C 20.835938 16.515625 19.910156 16.082031 20.285156 14.804688 L 20.652344 13.546875 C 20.9375 12.542969 21.851562 11.644531 22.867188 11.375 Z M 22.867188 11.375 " fill-opacity="1" fill-rule="evenodd"/><path fill="#2036cd" d="M 36.9375 18.03125 C 36.859375 18.011719 36.777344 18.015625 36.6875 18.035156 L 13.417969 24.273438 C 13.066406 24.371094 12.785156 24.777344 12.785156 25.183594 L 12.785156 29.960938 C 12.785156 30.363281 13.066406 30.617188 13.417969 30.523438 L 21.300781 28.414062 L 22.269531 26.382812 L 14.722656 28.40625 L 14.722656 25.691406 L 35.390625 20.15625 L 35.390625 22.867188 L 26.378906 25.28125 L 28.433594 26.503906 L 36.6875 24.292969 C 37.039062 24.195312 37.328125 23.789062 37.328125 23.386719 L 37.328125 18.605469 C 37.324219 18.300781 37.167969 18.082031 36.9375 18.03125 Z M 36.9375 18.03125 " fill-opacity="1" fill-rule="evenodd"/><g clip-path="url(#839e47b062)"><path fill="#2036cd" d="M 25.523438 28.660156 L 37.570312 35.46875 L 34.378906 36.496094 C 33.929688 36.640625 33.726562 37.164062 33.957031 37.570312 L 37.4375 43.71875 L 33.71875 44.785156 L 29.78125 38.265625 C 29.613281 37.980469 29.261719 37.839844 28.941406 37.9375 L 25.550781 38.964844 Z M 24.128906 26.890625 L 22.949219 29.359375 C 22.902344 29.457031 22.878906 29.558594 22.878906 29.667969 L 22.863281 42.421875 C 22.855469 42.921875 23.339844 43.289062 23.820312 43.144531 L 27.628906 41.996094 L 31.566406 48.515625 C 31.742188 48.804688 32.085938 48.933594 32.414062 48.839844 L 37.578125 47.355469 C 37.78125 47.292969 37.949219 47.152344 38.039062 46.960938 L 39.191406 44.535156 C 39.324219 44.308594 39.324219 44.03125 39.191406 43.804688 L 36.710938 39.535156 L 38.246094 39.121094 C 38.445312 39.066406 38.589844 38.835938 38.675781 38.648438 L 39.84375 36.074219 L 39.847656 36.070312 C 39.851562 36.066406 39.851562 36.058594 39.855469 36.054688 C 40.003906 35.734375 39.910156 35.351562 39.625 35.136719 L 25.242188 26.609375 C 24.75 26.316406 24.3125 26.511719 24.128906 26.890625 Z M 24.128906 26.890625 " fill-opacity="1" fill-rule="nonzero"/></g><g clip-path="url(#ee4e156e32)"><g clip-path="url(#b8f269bbc3)"><path fill="#2036cd" d="M 0.234375 27.824219 L 7.253906 27.824219 L 7.253906 38.109375 L 0.234375 38.109375 Z M 0.234375 27.824219 " fill-opacity="1" fill-rule="nonzero"/></g></g></svg>